<?xml version="1.0" encoding="UTF-8" standalone="no"?>
<svg
   xmlns:dc="http://purl.org/dc/elements/1.1/"
   xmlns:cc="http://creativecommons.org/ns#"
   xmlns:rdf="http://www.w3.org/1999/02/22-rdf-syntax-ns#"
   xmlns:svg="http://www.w3.org/2000/svg"
   xmlns="http://www.w3.org/2000/svg"
   xmlns:sodipodi="http://sodipodi.sourceforge.net/DTD/sodipodi-0.dtd"
   xmlns:inkscape="http://www.inkscape.org/namespaces/inkscape"
   fill="#216DFF"
   height="24"
   width="24"
   id="svg3396"
   version="1.1"
   inkscape:version="0.91 r13725"
   sodipodi:docname="icon.svg"
   inkscape:export-filename="/Users/PSD/Documents/git/sDialer/app/src/main/res/mipmap-hdpi/ic_launcher5.png"
   inkscape:export-xdpi="270"
   inkscape:export-ydpi="270">
  <metadata
     id="metadata3404">
    <rdf:RDF>
      <cc:Work
         rdf:about="">
        <dc:format>image/svg+xml</dc:format>
        <dc:type
           rdf:resource="http://purl.org/dc/dcmitype/StillImage" />
      </cc:Work>
    </rdf:RDF>
  </metadata>
  <defs
     id="defs3402" />
  <rect
     style="fill:#6fa2ff;fill-opacity:1;stroke:none;stroke-width:1.11535192;stroke-opacity:1"
     id="rect4214"
     width="20"
     height="20"
     x="2"
     y="2"
     inkscape:export-xdpi="179.99998"
     inkscape:export-ydpi="179.99998"
     ry="4"
     rx="4" />
  <sodipodi:namedview
     pagecolor="#ffffff"
     bordercolor="#666666"
     borderopacity="1"
     objecttolerance="10"
     gridtolerance="10"
     guidetolerance="10"
     inkscape:pageopacity="0"
     inkscape:pageshadow="2"
     inkscape:window-width="829"
     inkscape:window-height="725"
     id="namedview3400"
     showgrid="false"
     inkscape:zoom="12.592269"
     inkscape:cx="11.678945"
     inkscape:cy="13.883688"
     inkscape:window-x="157"
     inkscape:window-y="0"
     inkscape:window-maximized="0"
     inkscape:current-layer="svg3396" />
  <path
     d="M 12.587299,16.100068 C 10.384078,15.068709 8.5856922,13.407078 7.4568361,11.380173 L 9.1695852,9.8044856 C 9.3797846,9.6111047 9.4498536,9.3246163 9.3564295,9.0739398 9.0683761,8.2717718 8.9126717,7.405144 8.9126717,6.5170326 c 0,-0.3939228 -0.3503335,-0.7162219 -0.778523,-0.7162219 l -2.7170397,0 c -0.4281891,0 -0.7785233,0.3222991 -0.7785233,0.7162219 0,6.7253144 5.9245553,12.1757534 13.2348773,12.1757534 0.428188,0 0.778522,-0.322298 0.778522,-0.71622 l 0,-2.506773 c 0,-0.393922 -0.350334,-0.716223 -0.778522,-0.716223 -0.973152,0 -1.90738,-0.143245 -2.779323,-0.408243 -0.272484,-0.07879 -0.576108,-0.02148 -0.794095,0.179055 l -1.712746,1.575686 z"
     id="path3398"
     inkscape:connector-curvature="0"
     style="fill:#ffffff;fill-opacity:1" />
</svg>
