<svg xmlns="http://www.w3.org/2000/svg" fill="#216DFF" height="100%" width="100%"  xmlns:xlink="http://www.w3.org/1999/xlink" viewBox="3 3 18 18" preserveAspectRatio="xMidYMid meet" ><defs id="svgEditorDefs"><path id="svgEditorClosePathDefs" stroke="black" fill="khaki" style="stroke-width: 1px; vector-effect: non-scaling-stroke;"/></defs><rect id="svgEditorBackground" x="3" y="3" width="18" height="18" style="fill: none; stroke: none;"/>
    <path d="M6.619999885559082,10.789999961853027c1.4399995803833008,2.8299999237060547,3.760000228881836,5.140000343322754,6.590000152587891,6.590001106262207l2.1999998092651367,-2.1999998092651367c0.2700004577636719,-0.2700004577636719,0.6700000762939453,-0.3599996566772461,1.0200004577636719,-0.23999977111816406c1.1200008392333984,0.36999988555908203,2.3299999237060547,0.5699996948242188,3.5699996948242188,0.5699996948242188c0.5499992370605469,0,1,0.4499998092651367,1,1.0000009536743164v3.4899978637695312c0,0.5499992370605469,-0.4500007629394531,1,-1,1c-9.390000343322754,0,-17,-7.6100006103515625,-17,-17c0,-0.5499999523162842,0.4500000476837158,-1,1,-1h3.5c0.5500001907348633,0,1,0.4500000476837158,1,1c0,1.25,0.19999980926513672,2.4499998092651367,0.5699996948242188,3.5699996948242188c0.1099996566772461,0.34999990463256836,0.029999732971191406,0.7399997711181641,-0.25,1.0200004577636719l-2.1999998092651367,2.1999998092651367Z" transform="matrix(43.0382 0 0 43.0382 -516.671 -513.618)"/>
<circle id="e4_circle" cx="18.7585" cy="130.207" stroke="#216DFF" style="stroke-width: 1px; vector-effect: non-scaling-stroke;" r="644.867" transform="matrix(0.857205 0 0 0.857205 -11.1145 -117.683)" fill="#FFFFFF"/><path d="M6.619999885559082,10.789999961853027c1.4399995803833008,2.8299999237060547,3.760000228881836,5.140000343322754,6.590000152587891,6.590001106262207l2.1999998092651367,-2.1999998092651367c0.2700004577636719,-0.2700004577636719,0.6700000762939453,-0.3599996566772461,1.0200004577636719,-0.23999977111816406c1.1200008392333984,0.36999988555908203,2.3299999237060547,0.5699996948242188,3.5699996948242188,0.5699996948242188c0.5499992370605469,0,1,0.4499998092651367,1,1.0000009536743164v3.4899978637695312c0,0.5499992370605469,-0.4500007629394531,1,-1,1c-9.390000343322754,0,-17,-7.6100006103515625,-17,-17c0,-0.5499999523162842,0.4500000476837158,-1,1,-1h3.5c0.5500001907348633,0,1,0.4500000476837158,1,1c0,1.25,0.19999980926513672,2.4499998092651367,0.5699996948242188,3.5699996948242188c0.1099996566772461,0.34999990463256836,0.029999732971191406,0.7399997711181641,-0.25,1.0200004577636719l-2.1999998092651367,2.1999998092651367Z" transform="matrix(43.0382 0 0 43.0382 -516.671 -513.618)" id="e5_path"/></svg>